<svg width="640" height="480" xmlns="http://www.w3.org/2000/svg"><title>Layer 1</title><g stroke-linecap="null" stroke-linejoin="null" stroke="#000"><path opacity=".63" fill-opacity=".35" stroke-width="5" fill="none" d="M106.955 186.19h39.726v139.556h-39.725z"/><path opacity=".63" fill-opacity=".35" stroke-width="5" fill="none" d="M49.737 189.46h45.36V326.4h-45.36z"/><path opacity=".63" fill-opacity=".35" stroke-width="5" fill="none" d="M158.243 187.498H187v138.248h-28.757z"/><path opacity=".63" fill-opacity=".35" stroke-width="5" fill="none" d="M50.034 325.42l45.062-56.542"/><path opacity=".63" fill-opacity=".35" stroke-width="5" fill="none" d="M49.144 264.63l45.952-48.044"/><path opacity=".63" fill-opacity=".35" stroke-width="5" fill="none" d="M50.33 213.97l44.47-23.203"/><path opacity=".63" fill-opacity=".35" stroke-width="5" fill="none" d="M119.11 324.44l27.274-46.084"/><path opacity=".63" fill-opacity=".35" stroke-width="5" fill="none" d="M146.384 245.02l-39.43 50.985"/><path opacity=".63" fill-opacity=".35" stroke-width="5" fill="none" d="M107.25 258.093l39.134-52.292"/><path opacity=".4" stroke-width="0" fill="#7f7f7f" d="M-486.69 292.34h25v228.92h-25z"/><path opacity=".4" stroke-width="0" fill="#7f7f7f" d="M48.552 191.093h8.894v134h-8.894z"/><path opacity=".4" stroke-width="0" fill="#7f7f7f" d="M106.955 184.23h12.155v140.536h-12.155z"/><path opacity=".4" stroke-width="0" fill="#7f7f7f" d="M160.022 186.19h10.97v137.922h-10.97z"/><path opacity=".4" stroke-width="0" fill="#7f7f7f" d="M-480 152.072h25v217.195h-25z"/><path opacity=".4" stroke-width="0" fill="#7f7f7f" d="M-390.465 325.183h25V505.9h-25z"/><path fill="#2a3a5e" stroke-width="0" opacity=".2" d="M43.727 188.615h18.38V326.21h-18.38z"/></g><g stroke-linecap="null" stroke-linejoin="null" stroke="#000"><path opacity=".63" fill-opacity=".35" stroke-width="5" fill="none" d="M-512.19-187.476h-38.617v-135.66h38.617z"/><path opacity=".63" fill-opacity=".35" stroke-width="5" fill="none" d="M-456.57-190.653h-44.093V-323.77h44.093z"/><path opacity=".63" fill-opacity=".35" stroke-width="5" fill="none" d="M-562.046-188.746H-590v-134.388h27.954z"/><path opacity=".63" fill-opacity=".35" stroke-width="5" fill="none" d="M-456.858-322.817l-43.804 54.963"/><path opacity=".63" fill-opacity=".35" stroke-width="5" fill="none" d="M-455.993-263.724l-44.67 46.702"/><path opacity=".63" fill-opacity=".35" stroke-width="5" fill="none" d="M-457.146-214.48l-43.228 22.557"/><path opacity=".63" fill-opacity=".35" stroke-width="5" fill="none" d="M-524.005-321.864l-26.513 44.796"/><path opacity=".63" fill-opacity=".35" stroke-width="5" fill="none" d="M-550.518-244.662l38.328-49.562"/><path opacity=".63" fill-opacity=".35" stroke-width="5" fill="none" d="M-512.478-257.37l-38.04 50.832"/><path transform="matrix(-.219 -.206 .187 -.242 -575.867 -59.572)" opacity=".4" stroke-width="0" fill="#7f7f7f" d="M192.404 650.66h25v228.922h-25z"/><path opacity=".4" stroke-width="0" fill="#7f7f7f" d="M-455.417-192.24h-8.646V-322.5h8.646z"/><path opacity=".4" stroke-width="0" fill="#7f7f7f" d="M-512.19-185.57h-11.816v-136.61h11.816z"/><path opacity=".4" stroke-width="0" fill="#7f7f7f" d="M-563.775-187.476h-10.663v-134.07h10.663z"/><path transform="matrix(-.219 -.206 .187 -.242 -549.007 -47.096)" opacity=".4" stroke-width="0" fill="#7f7f7f" d="M199.096 510.393h25v217.195h-25z"/><path transform="matrix(-.116 -.291 .264 -.128 -550.064 -35.702)" opacity=".4" stroke-width="0" fill="#7f7f7f" d="M376.92 351.356h25v180.717h-25z"/><path fill="#2a3a5e" stroke-width="0" opacity=".2" d="M-450.727-189.832h-17.868v-133.753h17.868z"/></g><path fill="#fff" stroke="#000" stroke-width="3" stroke-linejoin="null" stroke-linecap="null" opacity=".65" d="M161.2 144.8h318v35h-318z"/><path fill="#09f" stroke="#b2b2b2" stroke-width="0" stroke-linejoin="null" stroke-linecap="null" opacity=".65" fill-opacity=".5" d="M160.2 112.8h320v27h-320z"/><path fill="#e5e5e5" stroke="#b2b2b2" stroke-width="0" stroke-linejoin="null" stroke-linecap="null" opacity=".65" d="M163.2 159.8h309v17h-309z"/><path fill="#fff" stroke="#b2b2b2" stroke-width="0" stroke-linejoin="null" stroke-linecap="null" opacity=".65" d="M156.2 112.8h324v15h-324z"/></svg>